<svg version="1.0" xmlns="http://www.w3.org/2000/svg" width="160.000000pt" height="165.000000pt" viewBox="0 0 160.000000 165.000000" preserveAspectRatio="xMidYMid meet" style="width: 449.223px; height: auto;"> <g transform="translate(0.000000,165.000000) scale(0.100000,-0.100000)" fill="#000000" stroke="none"> <path d="M1443 1383 c-7 -2 -13 -14 -13 -24 0 -11 -4 -18 -9 -14 -5 3 -15 0 -23 -7 -7 -7 -50 -48 -95 -91 -55 -54 -83 -75 -89 -66 -4 8 -3 10 4 5 17 -10 15 29 -2 43 -11 9 -15 8 -20 -4 -3 -9 -2 -13 4 -10 6 3 10 0 10 -8 0 -24 -25 -27 -39 -5 -18 29 -69 48 -102 36 -74 -26 -93 -99 -46 -179 21 -35 25 -52 20 -86 -4 -33 -9 -40 -22 -36 -11 4 -9 -2 8 -20 32 -36 22 -56 -12 -21 -15 14 -27 22 -27 16 0 -6 9 -17 19 -24 19 -13 22 -31 10 -53 -3 -5 -5 -25 -3 -44 2 -29 0 -32 -9 -15 -6 10 -25 37 -43 59 -30 38 -34 54 -25 119 0 5 7 4 14 -3 11 -8 13 -5 9 18 -3 22 1 32 16 40 11 6 22 8 24 5 11 -10 -1 43 -16 76 -16 35 -16 35 -12 5 3 -21 -6 -51 -30 -98 -19 -37 -34 -76 -34 -87 0 -23 20 -70 31 -70 12 0 69 -92 69 -112 0 -10 4 -18 8 -18 11 0 50 249 67 426 4 45 -9 61 -27 35 -8 -11 -17 -18 -20 -16 -3 3 -8 -1 -11 -10 -4 -8 -2 -15 3 -15 6 0 10 -7 10 -16 0 -9 5 -12 13 -8 7 5 6 0 -3 -11 -9 -11 -10 -16 -2 -11 6 4 12 3 12 -3 0 -20 -22 -22 -27 -2 -3 12 -10 21 -15 21 -5 0 -8 17 -6 37 4 47 51 84 95 75 l28 -6 -25 -7 c-19 -5 -20 -7 -6 -8 11 -1 28 -9 38 -18 16 -14 23 -15 38 -5 27 17 33 15 27 -8 -3 -12 0 -20 8 -20 7 0 18 -7 25 -15 23 -28 53 -18 78 26 30 51 22 63 -8 14 -19 -31 -26 -36 -49 -30 -14 4 -28 9 -30 11 -3 3 31 40 74 84 43 44 81 77 84 73 4 -3 0 -8 -6 -10 -7 -3 -13 -9 -13 -14 0 -5 -17 -25 -37 -44 l-38 -35 28 3 c21 2 37 19 77 80 28 42 55 79 60 82 12 7 13 25 3 24 -5 0 -14 -3 -20 -6z m-23 -47 c0 -2 -8 -10 -17 -17 -16 -13 -17 -12 -4 4 13 16 21 21 21 13z m-254 -153 c-7 -7 -26 7 -26 19 0 6 6 6 15 -2 9 -7 13 -15 11 -17z m-104 -55 c-7 -7 -12 -8 -12 -2 0 14 12 26 19 19 2 -3 -1 -11 -7 -17z m-76 -94 c-4 -9 -9 -15 -11 -12 -3 3 -3 13 1 22 4 9 9 15 11 12 3 -3 3 -13 -1 -22z"></path> <path d="M1277 1172 c-21 -23 -21 -32 -2 -32 8 0 15 7 15 15 0 8 5 15 10 15 6 0 10 5 10 10 0 16 -15 12 -33 -8z"></path> <path d="M1110 1138 c0 -9 7 -19 16 -22 24 -9 24 -4 3 18 -16 16 -19 17 -19 4z"></path> <path d="M1167 1133 c-14 -13 -6 -21 15 -15 16 4 19 2 13 -8 -5 -9 -4 -11 4 -6 9 6 9 11 0 22 -13 15 -22 18 -32 7z"></path> <path d="M1310 1096 c0 -8 4 -16 9 -18 5 -1 30 -23 56 -47 25 -24 48 -41 51 -38 3 3 26 -15 51 -39 39 -38 44 -48 38 -72 -7 -30 -21 -42 -47 -42 -10 0 -18 -4 -18 -10 0 -15 46 -12 60 5 6 8 14 32 17 54 l5 39 -88 70 c-49 39 -95 80 -102 91 -14 24 -32 28 -32 7z" class=""></path> <path d="M1213 1022 c-13 -2 -23 -5 -23 -8 0 -10 45 -54 55 -54 21 0 35 22 25 40 -11 21 -27 27 -57 22z m27 -27 c0 -8 -4 -15 -10 -15 -5 0 -10 7 -10 15 0 8 5 15 10 15 6 0 10 -7 10 -15z"></path> <path d="M984 985 c-7 -17 3 -35 19 -35 8 0 7 3 -2 9 -8 5 -11 16 -8 25 4 9 4 16 1 16 -2 0 -7 -7 -10 -15z"></path> <path d="M195 885 c-47 -17 -89 -60 -82 -86 3 -11 2 -19 -2 -19 -4 0 -6 -14 -3 -30 5 -37 11 -34 17 10 4 37 1 33 40 53 17 9 23 16 15 17 -9 0 -21 -5 -28 -12 -6 -6 -15 -9 -18 -5 -9 8 31 44 58 53 54 17 136 -31 184 -107 30 -48 31 -64 5 -49 -14 7 -22 7 -26 -1 -5 -6 -11 -5 -18 5 -14 19 -107 48 -107 34 0 -5 -4 -6 -10 -3 -29 18 -61 -39 -35 -62 4 -5 5 -3 1 4 -3 6 -1 15 5 18 7 5 10 0 7 -11 -2 -11 -11 -18 -21 -18 -9 1 -15 -2 -12 -6 3 -5 -6 -21 -21 -37 -16 -17 -24 -21 -20 -11 3 10 1 20 -4 23 -6 4 -10 -1 -10 -9 0 -11 -9 -16 -26 -16 -26 0 -26 0 -6 17 12 10 24 32 27 48 l6 30 -14 -30 c-8 -17 -27 -36 -42 -43 -41 -19 -18 -36 49 -36 64 -1 90 18 108 76 12 40 25 48 35 22 5 -12 22 -15 94 -13 49 2 89 4 89 6 0 1 -17 35 -37 74 -53 103 -119 141 -198 114z m113 -161 c35 -10 26 -27 -10 -20 -39 8 -62 26 -32 26 10 0 29 -3 42 -6z" stroke-width="1"></path> <path d="M375 889 c-4 -6 -5 -12 -2 -15 2 -3 7 2 10 11 7 17 1 20 -8 4z" stroke-width="1"></path> <path d="M1455 891 c-3 -5 -1 -12 5 -16 5 -3 10 1 10 9 0 18 -6 21 -15 7z"></path> <path d="M1280 850 c0 -6 23 -10 54 -10 30 0 66 -4 80 -10 15 -5 26 -6 26 0 0 12 -27 20 -98 26 -40 3 -62 1 -62 -6z"></path> <path d="M1255 820 c-4 -16 -4 -38 -1 -47 8 -28 15 -108 21 -230 5 -95 3 -116 -12 -145 -31 -57 -63 -97 -83 -103 -11 -4 -17 -11 -14 -17 5 -8 1 -9 -10 -5 -10 4 -15 3 -11 -3 3 -5 -7 -15 -22 -22 -15 -7 -39 -20 -52 -30 -14 -10 -32 -16 -43 -13 -10 4 -18 2 -18 -3 0 -10 -101 -41 -154 -48 -17 -2 -49 -6 -71 -9 -68 -10 -227 -6 -220 5 3 5 -4 6 -15 3 -11 -3 -34 0 -51 6 -18 6 -34 9 -36 7 -25 -24 225 -52 332 -36 206 29 325 78 417 172 70 71 95 139 80 216 -5 26 -8 63 -5 82 2 19 -2 72 -10 117 -8 45 -12 93 -10 107 7 36 -4 33 -12 -4z" stroke-width="1"></path> <path d="M620 813 c-62 -4 -189 -33 -196 -45 -8 -13 6 -25 14 -12 8 12 80 30 157 39 37 5 46 4 35 -4 -19 -13 -5 -14 20 -1 10 5 55 9 101 9 46 0 97 0 112 0 23 0 28 -3 23 -16 -5 -12 -4 -13 7 -4 9 6 28 8 48 5 25 -5 31 -4 23 5 -20 22 -198 35 -344 24z"></path> <path d="M183 798 c-13 -6 -23 -16 -23 -22 0 -6 5 -5 12 2 7 7 20 12 30 12 10 0 18 5 18 10 0 12 -8 12 -37 -2z"></path> <path d="M230 783 c0 -14 2 -15 9 -4 6 9 11 10 15 2 4 -6 13 -11 19 -11 13 1 -22 30 -35 30 -4 0 -8 -8 -8 -17z"></path> <path d="M140 751 c0 -6 5 -13 10 -16 6 -3 10 1 10 9 0 9 -4 16 -10 16 -5 0 -10 -4 -10 -9z"></path> <path d="M324 746 c11 -9 24 -16 30 -16 12 0 7 5 -24 19 -24 11 -24 11 -6 -3z"></path> <path d="M129 718 c-5 -10 -7 -59 -3 -55 6 6 13 57 8 57 -2 0 -5 -1 -5 -2z"></path> <path d="M1020 674 c0 -8 5 -12 10 -9 6 4 8 11 5 16 -9 14 -15 11 -15 -7z"></path> <path d="M137 551 c-19 -33 -24 -136 -6 -147 7 -4 9 10 4 49 -6 43 -3 60 10 80 9 15 15 31 13 37 -2 6 -11 -2 -21 -19z"></path> <path d="M590 538 c-30 -5 -59 -14 -65 -20 -7 -7 6 -8 40 -2 28 5 107 9 177 9 70 0 121 3 115 7 -22 12 -211 16 -267 6z"></path> <path d="M488 523 c7 -3 16 -2 19 1 4 3 -2 6 -13 5 -11 0 -14 -3 -6 -6z"></path> <path d="M586 488 c3 -4 49 -7 102 -7 113 2 104 6 -20 12 -48 2 -85 0 -82 -5z"></path> <path d="M790 492 c0 -9 47 -8 57 1 3 4 -8 7 -25 7 -18 0 -32 -4 -32 -8z"></path> <path d="M140 384 c0 -5 7 -18 15 -28 8 -11 15 -16 15 -10 0 5 -7 18 -15 28 -8 11 -15 16 -15 10z"></path> <path d="M180 326 c0 -8 5 -18 10 -21 6 -3 10 1 10 9 0 8 -4 18 -10 21 -5 3 -10 -1 -10 -9z"></path> <path d="M201 287 c2 -1 15 -11 28 -22 l24 -20 -12 23 c-6 12 -19 22 -28 22 -9 0 -14 -1 -12 -3z"></path> <path d="M260 241 c0 -5 7 -12 16 -15 24 -9 28 -7 14 9 -14 17 -30 20 -30 6z"></path> <path d="M324 226 c1 -26 76 -71 76 -47 0 5 -15 15 -34 21 -19 6 -37 19 -39 28 -3 13 -4 12 -3 -2z"></path> <path d="M582 230 c0 -14 2 -19 5 -12 2 6 2 18 0 25 -3 6 -5 1 -5 -13z" stroke-width="1"></path> <path d="M752 225 c0 -16 2 -22 5 -12 2 9 2 23 0 30 -3 6 -5 -1 -5 -18z" stroke-width="1"></path> <path d="M420 170 c0 -5 7 -10 16 -10 8 0 12 5 9 10 -3 6 -10 10 -16 10 -5 0 -9 -4 -9 -10z"></path> </g> </svg>